<svg width="150" height="135" viewBox="0 0 150 135" fill="none" xmlns="http://www.w3.org/2000/svg">
<g clip-path="url(#clip0_413_228)">
<path d="M61.3169 19.0806H0V53.5487H61.3169V19.0806Z" fill="#25BE9F"/>
<path d="M65.8436 50.4711H4.11523V15.5927H65.8436V50.4711ZM4.52676 50.0607H65.4321V16.003H4.52676V50.0607Z" fill="#3F3D56"/>
<path d="M145.473 3.48779H84.1564V37.9559H145.473V3.48779Z" fill="#F2F2F2"/>
<path d="M150 34.8784H88.2716V0H150V34.8784ZM88.6831 34.4681H149.588V0.410334H88.6831V34.4681Z" fill="#3F3D56"/>
<path d="M105.373 135H26.9782C26.9237 135 26.8713 134.978 26.8327 134.94C26.7941 134.901 26.7725 134.849 26.7725 134.795C26.7725 134.74 26.7941 134.688 26.8327 134.65C26.8713 134.611 26.9237 134.59 26.9782 134.59H105.373C105.428 134.59 105.48 134.611 105.519 134.65C105.557 134.688 105.579 134.74 105.579 134.795C105.579 134.849 105.557 134.901 105.519 134.94C105.48 134.978 105.428 135 105.373 135Z" fill="#CCCCCC"/>
<path d="M76.0558 86.5257C76.0735 86.1547 76.1724 85.7922 76.3458 85.4635C76.5191 85.1349 76.7626 84.8481 77.0592 84.6234C77.3557 84.3988 77.698 84.2417 78.062 84.1632C78.426 84.0847 78.8028 84.0868 79.166 84.1692L82.5347 79.4354L85.919 80.7751L81.0675 87.3934C80.8882 87.9925 80.4947 88.5052 79.9616 88.8343C79.4285 89.1634 78.7929 89.2861 78.1751 89.1792C77.5574 89.0722 77.0004 88.743 76.6098 88.2539C76.2192 87.7649 76.0221 87.1499 76.0558 86.5256L76.0558 86.5257Z" fill="#A0616A"/>
<path d="M79.7512 82.4546L85.7407 72.4102L83.3005 65.9217L86.624 57.0844L86.7466 57.1368C86.8269 57.1711 88.7154 58.0114 88.9952 61.0205L92.8146 72.9893L82.6213 86.1748L79.7512 82.4546Z" fill="#3F3D56"/>
<path d="M47.222 45.5283C47.5915 45.5745 47.9463 45.7009 48.2616 45.8987C48.5768 46.0964 48.8447 46.3607 49.0464 46.6728C49.2481 46.985 49.3787 47.3374 49.4291 47.7053C49.4794 48.0733 49.4482 48.4477 49.3377 48.8023L53.8105 52.5173L52.2093 55.7782L45.9668 50.4435C45.3816 50.2189 44.8994 49.7881 44.6116 49.2327C44.3237 48.6773 44.2502 48.0359 44.4049 47.43C44.5596 46.8241 44.9318 46.2959 45.451 45.9454C45.9702 45.5949 46.6003 45.4465 47.222 45.5283Z" fill="#A0616A"/>
<path d="M51.0068 49.5168L60.587 56.2478L67.2635 54.3235L75.843 58.3108L75.7811 58.4286C75.7406 58.5058 74.7544 60.3182 71.7239 60.3638L59.4611 63.2353L47.0651 52.0825L51.0068 49.5168Z" fill="#3F3D56"/>
<path d="M68.5368 131.368H65.2064L63.6218 118.558L68.5375 118.559L68.5368 131.368Z" fill="#A0616A"/>
<path d="M61.8462 130.419H69.2505V134.452H58.7831V133.473C58.7831 132.663 59.1058 131.886 59.6803 131.314C60.2547 130.741 61.0338 130.419 61.8462 130.419Z" fill="#2F2E41"/>
<path d="M81.8486 131.368H78.518L76.9336 118.558L81.849 118.559L81.8486 131.368Z" fill="#A0616A"/>
<path d="M75.1579 130.419H82.5622V134.452H72.0947V133.473C72.0947 132.663 72.4175 131.886 72.9919 131.314C73.5664 130.741 74.3455 130.419 75.1579 130.419Z" fill="#2F2E41"/>
<path d="M83.0329 84.6124L82.7613 103.574L82.4897 128.495L76.5129 127.953L73.5247 93.5516L69.7214 127.953H63.5512L62.9298 93.2807L65.1031 85.6959L83.0329 84.6124Z" fill="#2F2E41"/>
<path d="M64.5074 85.8117L63.5969 85.7724L67.8261 62.5419L66.0945 55.5204C66.0045 55.155 66.052 54.7695 66.228 54.4368C66.4041 54.1041 66.6964 53.8473 67.0496 53.7152L70.1652 52.5503L71.2659 49.532L79.9503 50.4651L80.1639 52.824C81.105 53.1249 88.8546 55.6983 88.3199 58.6306C87.7922 61.5248 84.6761 70.6306 84.5178 71.092L83.9721 84.1507L83.905 84.1842C83.8242 84.2245 77.8383 87.1592 71.3353 87.1587C69.0453 87.1586 66.6898 86.7945 64.5074 85.8117Z" fill="#3F3D56"/>
<path d="M80.7544 44.7941C82.4108 41.7727 81.2972 37.9844 78.267 36.3328C75.2369 34.6811 71.4377 35.7915 69.7812 38.813C68.1248 41.8344 69.2384 45.6226 72.2686 47.2743C75.2987 48.9259 79.098 47.8155 80.7544 44.7941Z" fill="#A0616A"/>
<path d="M80.3325 47.8389C79.1409 49.1046 76.9279 48.4251 76.7726 46.696C76.7604 46.5618 76.7613 46.4267 76.7752 46.2926C76.8554 45.5267 77.2992 44.8313 77.1929 44.0226C77.1688 43.8213 77.0936 43.6295 76.9744 43.4653C76.0248 42.1974 73.7957 44.0324 72.8995 42.8846C72.35 42.1808 72.996 41.0727 72.5743 40.2861C72.0177 39.2479 70.3692 39.76 69.3353 39.1915C68.1851 38.5589 68.2539 36.7992 69.0111 35.7288C69.9345 34.4235 71.5535 33.727 73.1523 33.6266C74.7511 33.5262 76.3389 33.9572 77.8316 34.5372C79.5275 35.1962 81.2093 36.107 82.253 37.594C83.5222 39.4023 83.6443 41.8333 83.0096 43.9478C82.6234 45.234 81.3056 46.8053 80.3325 47.8389Z" fill="#2F2E41"/>
</g>
<defs>
<clipPath id="clip0_413_228">
<rect width="150" height="135" fill="white"/>
</clipPath>
</defs>
</svg>
