<svg width="216" height="137" viewBox="0 0 216 137" fill="none" xmlns="http://www.w3.org/2000/svg">
<g clip-path="url(#clip0_413_246)">
<path d="M81.8609 21.5706C81.712 21.7631 81.5063 21.9034 81.2731 21.9716C81.0399 22.0397 80.7912 22.0322 80.5625 21.9501C80.4929 21.9295 80.4247 21.9045 80.3582 21.8754C80.4333 21.0705 80.3961 20.259 80.2477 19.4643C80.1894 20.1473 80.0228 20.8167 79.7542 21.4471C79.5352 21.2269 79.356 20.9704 79.2245 20.6888C78.9794 20.1062 78.817 19.4919 78.742 18.8641C78.3795 16.725 78.0218 14.4997 78.6133 12.4092C79.4798 9.35544 82.2121 7.16011 83.3533 4.19726L83.9156 3.69116C84.878 5.33452 84.9206 7.37657 84.5283 9.24002C84.1381 11.1072 83.3517 12.8596 82.73 14.6602C82.1083 16.4608 81.6425 18.3761 81.9309 20.2602C81.9972 20.7039 82.0984 21.1915 81.8609 21.5706Z" fill="#2F2E41"/>
<path d="M69.3652 47.4099L65.7012 64.2136L81.7052 69.4403L79.3518 47.4099H69.3652Z" fill="#FFB6B6"/>
<path d="M182.3 136.588H189.552V103.25C189.542 94.646 186.129 86.3975 180.062 80.3138C173.995 74.2301 165.768 70.808 157.188 70.7982H89.7883C81.2078 70.808 72.9815 74.2301 66.9142 80.3138C60.8469 86.3975 57.434 94.646 57.4243 103.25V136.588H64.6765V113.812C64.6862 105.128 68.1308 96.8033 74.2546 90.663C80.3783 84.5227 88.6811 81.0687 97.3414 81.0589H149.635C158.295 81.0687 166.598 84.5227 172.722 90.663C178.845 96.8033 182.29 105.128 182.3 113.812V136.588Z" fill="#E6E6E6"/>
<path d="M94.173 119.147L86.4438 116.8C85.9412 114.729 85.6877 112.606 85.6887 110.474C85.6924 109.993 85.8327 109.522 86.0933 109.118C86.3539 108.714 86.7239 108.392 87.1601 108.191C87.5963 107.99 88.0806 107.917 88.5564 107.982C89.0321 108.047 89.4797 108.246 89.8467 108.556C93.9921 112.122 100.064 114.024 103.983 118.087C105.605 119.794 106.822 121.846 107.546 124.089C108.27 126.333 108.48 128.711 108.163 131.047L109.854 136.534C106.068 136.26 102.386 135.166 99.0618 133.328C95.7377 131.489 92.8505 128.95 90.5992 125.886C89.3532 124.154 88.3297 122.271 87.5528 120.283C90.8309 119.91 94.173 119.147 94.173 119.147Z" fill="#F2F2F2"/>
<path d="M114.317 128.132L118.259 126.935C118.264 126.914 118.269 126.893 118.274 126.872C118.383 126.389 118.349 125.884 118.175 125.42C118.001 124.956 117.696 124.553 117.296 124.261C116.896 123.969 116.42 123.801 115.926 123.777C115.433 123.754 114.943 123.876 114.517 124.128C112.728 125.194 110.741 126.112 109.314 127.591C108.486 128.462 107.865 129.508 107.496 130.653C107.127 131.797 107.02 133.01 107.182 134.202L106.319 137C108.25 136.86 110.128 136.302 111.823 135.365C113.519 134.427 114.991 133.132 116.14 131.569C116.775 130.686 117.297 129.726 117.693 128.711C116.022 128.521 114.317 128.132 114.317 128.132Z" fill="#F2F2F2"/>
<path d="M146.228 46.2124H130.876C130.659 46.2127 130.451 46.2995 130.298 46.4537C130.144 46.6079 130.058 46.8168 130.059 47.0346V71.3506H147.048V47.0346C147.048 46.9266 147.027 46.8196 146.985 46.7199C146.944 46.6201 146.884 46.5294 146.808 46.4531C146.732 46.3767 146.641 46.3162 146.542 46.2749C146.442 46.2336 146.335 46.2123 146.228 46.2124ZM138.604 60.0285C138.124 60.0262 137.664 59.834 137.324 59.4936C136.985 59.1532 136.793 58.6922 136.791 58.2109V55.4062C136.792 54.9246 136.983 54.4628 137.323 54.1225C137.663 53.7821 138.123 53.5909 138.604 53.5909C139.084 53.5909 139.545 53.7821 139.885 54.1225C140.225 54.4628 140.416 54.9246 140.416 55.4062V58.2109C140.414 58.6922 140.223 59.1533 139.883 59.4936C139.544 59.834 139.084 60.0262 138.604 60.0285Z" fill="#3F3D56"/>
<path d="M171.648 8.26453H106.027C105.463 8.26543 104.923 8.4904 104.524 8.89013C104.126 9.28986 103.901 9.83175 103.9 10.3971V54.7979C103.901 55.3633 104.125 55.9054 104.524 56.3052C104.923 56.705 105.463 56.9299 106.027 56.9304H171.648C172.212 56.9299 172.753 56.705 173.152 56.3052C173.55 55.9054 173.775 55.3633 173.775 54.7979V10.3971C173.774 9.83175 173.55 9.28986 173.151 8.89013C172.752 8.4904 172.212 8.26543 171.648 8.26453Z" fill="#3F3D56"/>
<path d="M171.1 9.80481H106.575C106.274 9.80547 105.984 9.92616 105.771 10.1404C105.558 10.3547 105.438 10.645 105.438 10.9477V54.248C105.439 54.5503 105.559 54.8401 105.772 55.0538C105.985 55.2676 106.274 55.3879 106.575 55.3884H171.1C171.402 55.3879 171.691 55.2676 171.904 55.0538C172.117 54.8401 172.237 54.5503 172.238 54.248V10.9477C172.238 10.645 172.118 10.3547 171.905 10.1404C171.692 9.92616 171.402 9.80547 171.1 9.80481Z" fill="white"/>
<path d="M130.006 70.5729V72.9189C130.006 73.0405 130.054 73.157 130.14 73.2429C130.226 73.3289 130.342 73.3773 130.463 73.3775H146.643C146.764 73.3769 146.88 73.3284 146.966 73.2425C147.051 73.1566 147.1 73.0403 147.1 72.9189V70.5729H130.006Z" fill="#3F3D56"/>
<path d="M158.532 74.1939H120.143C120.038 74.1939 119.934 74.1704 119.839 74.1251C119.745 74.0797 119.661 74.0138 119.595 73.932C119.529 73.8501 119.481 73.7545 119.457 73.6521C119.432 73.5497 119.431 73.443 119.452 73.3399L120.048 70.5032C120.082 70.3445 120.169 70.2022 120.294 70.1C120.42 69.9977 120.577 69.9416 120.739 69.941H157.937C158.098 69.9416 158.255 69.9977 158.381 70.1C158.507 70.2022 158.594 70.3445 158.627 70.5032L159.223 73.3399C159.245 73.443 159.243 73.5497 159.219 73.6521C159.194 73.7545 159.147 73.8501 159.08 73.932C159.014 74.0138 158.931 74.0797 158.836 74.1251C158.741 74.1704 158.637 74.1939 158.532 74.1939Z" fill="#3F3D56"/>
<path d="M122.047 70.4518H121.158C121.077 70.4518 121.011 70.5177 121.011 70.5991V71.0158C121.011 71.0971 121.077 71.1631 121.158 71.1631H122.047C122.128 71.1631 122.194 71.0971 122.194 71.0158V70.5991C122.194 70.5177 122.128 70.4518 122.047 70.4518Z" fill="#E6E6E6"/>
<path d="M124.411 70.4518H123.523C123.442 70.4518 123.376 70.5177 123.376 70.5991V71.0158C123.376 71.0971 123.442 71.1631 123.523 71.1631H124.411C124.493 71.1631 124.558 71.0971 124.558 71.0158V70.5991C124.558 70.5177 124.493 70.4518 124.411 70.4518Z" fill="#E6E6E6"/>
<path d="M126.776 70.4518H125.888C125.807 70.4518 125.741 70.5177 125.741 70.5991V71.0158C125.741 71.0971 125.807 71.1631 125.888 71.1631H126.776C126.857 71.1631 126.923 71.0971 126.923 71.0158V70.5991C126.923 70.5177 126.857 70.4518 126.776 70.4518Z" fill="#E6E6E6"/>
<path d="M129.141 70.4518H128.252C128.171 70.4518 128.105 70.5177 128.105 70.5991V71.0158C128.105 71.0971 128.171 71.1631 128.252 71.1631H129.141C129.222 71.1631 129.288 71.0971 129.288 71.0158V70.5991C129.288 70.5177 129.222 70.4518 129.141 70.4518Z" fill="#E6E6E6"/>
<path d="M131.506 70.4518H130.617C130.536 70.4518 130.47 70.5177 130.47 70.5991V71.0158C130.47 71.0971 130.536 71.1631 130.617 71.1631H131.506C131.587 71.1631 131.653 71.0971 131.653 71.0158V70.5991C131.653 70.5177 131.587 70.4518 131.506 70.4518Z" fill="#E6E6E6"/>
<path d="M133.87 70.4518H132.982C132.901 70.4518 132.835 70.5177 132.835 70.5991V71.0158C132.835 71.0971 132.901 71.1631 132.982 71.1631H133.87C133.951 71.1631 134.017 71.0971 134.017 71.0158V70.5991C134.017 70.5177 133.951 70.4518 133.87 70.4518Z" fill="#E6E6E6"/>
<path d="M136.235 70.4518H135.346C135.265 70.4518 135.199 70.5177 135.199 70.5991V71.0158C135.199 71.0971 135.265 71.1631 135.346 71.1631H136.235C136.316 71.1631 136.382 71.0971 136.382 71.0158V70.5991C136.382 70.5177 136.316 70.4518 136.235 70.4518Z" fill="#E6E6E6"/>
<path d="M138.6 70.4518H137.711C137.63 70.4518 137.564 70.5177 137.564 70.5991V71.0158C137.564 71.0971 137.63 71.1631 137.711 71.1631H138.6C138.681 71.1631 138.747 71.0971 138.747 71.0158V70.5991C138.747 70.5177 138.681 70.4518 138.6 70.4518Z" fill="#E6E6E6"/>
<path d="M140.964 70.4518H140.076C139.994 70.4518 139.929 70.5177 139.929 70.5991V71.0158C139.929 71.0971 139.994 71.1631 140.076 71.1631H140.964C141.045 71.1631 141.111 71.0971 141.111 71.0158V70.5991C141.111 70.5177 141.045 70.4518 140.964 70.4518Z" fill="#E6E6E6"/>
<path d="M143.329 70.4518H142.44C142.359 70.4518 142.293 70.5177 142.293 70.5991V71.0158C142.293 71.0971 142.359 71.1631 142.44 71.1631H143.329C143.41 71.1631 143.476 71.0971 143.476 71.0158V70.5991C143.476 70.5177 143.41 70.4518 143.329 70.4518Z" fill="#E6E6E6"/>
<path d="M145.694 70.4518H144.805C144.724 70.4518 144.658 70.5177 144.658 70.5991V71.0158C144.658 71.0971 144.724 71.1631 144.805 71.1631H145.694C145.775 71.1631 145.841 71.0971 145.841 71.0158V70.5991C145.841 70.5177 145.775 70.4518 145.694 70.4518Z" fill="#E6E6E6"/>
<path d="M148.058 70.4518H147.17C147.089 70.4518 147.023 70.5177 147.023 70.5991V71.0158C147.023 71.0971 147.089 71.1631 147.17 71.1631H148.058C148.14 71.1631 148.205 71.0971 148.205 71.0158V70.5991C148.205 70.5177 148.14 70.4518 148.058 70.4518Z" fill="#E6E6E6"/>
<path d="M150.423 70.4518H149.534C149.453 70.4518 149.387 70.5177 149.387 70.5991V71.0158C149.387 71.0971 149.453 71.1631 149.534 71.1631H150.423C150.504 71.1631 150.57 71.0971 150.57 71.0158V70.5991C150.57 70.5177 150.504 70.4518 150.423 70.4518Z" fill="#E6E6E6"/>
<path d="M152.788 70.4518H151.899C151.818 70.4518 151.752 70.5177 151.752 70.5991V71.0158C151.752 71.0971 151.818 71.1631 151.899 71.1631H152.788C152.869 71.1631 152.935 71.0971 152.935 71.0158V70.5991C152.935 70.5177 152.869 70.4518 152.788 70.4518Z" fill="#E6E6E6"/>
<path d="M155.152 70.4518H154.264C154.183 70.4518 154.117 70.5177 154.117 70.5991V71.0158C154.117 71.0971 154.183 71.1631 154.264 71.1631H155.152C155.233 71.1631 155.299 71.0971 155.299 71.0158V70.5991C155.299 70.5177 155.233 70.4518 155.152 70.4518Z" fill="#E6E6E6"/>
<path d="M157.517 70.4518H156.629C156.547 70.4518 156.482 70.5177 156.482 70.5991V71.0158C156.482 71.0971 156.547 71.1631 156.629 71.1631H157.517C157.598 71.1631 157.664 71.0971 157.664 71.0158V70.5991C157.664 70.5177 157.598 70.4518 157.517 70.4518Z" fill="#E6E6E6"/>
<path d="M122.019 71.6373H121.13C121.049 71.6373 120.983 71.7033 120.983 71.7847V72.2013C120.983 72.2827 121.049 72.3486 121.13 72.3486H122.019C122.1 72.3486 122.166 72.2827 122.166 72.2013V71.7847C122.166 71.7033 122.1 71.6373 122.019 71.6373Z" fill="#E6E6E6"/>
<path d="M124.384 71.6373H123.495C123.414 71.6373 123.348 71.7033 123.348 71.7847V72.2013C123.348 72.2827 123.414 72.3486 123.495 72.3486H124.384C124.465 72.3486 124.53 72.2827 124.53 72.2013V71.7847C124.53 71.7033 124.465 71.6373 124.384 71.6373Z" fill="#E6E6E6"/>
<path d="M126.748 71.6373H125.86C125.779 71.6373 125.713 71.7033 125.713 71.7847V72.2013C125.713 72.2827 125.779 72.3486 125.86 72.3486H126.748C126.829 72.3486 126.895 72.2827 126.895 72.2013V71.7847C126.895 71.7033 126.829 71.6373 126.748 71.6373Z" fill="#E6E6E6"/>
<path d="M129.113 71.6373H128.224C128.143 71.6373 128.077 71.7033 128.077 71.7847V72.2013C128.077 72.2827 128.143 72.3486 128.224 72.3486H129.113C129.194 72.3486 129.26 72.2827 129.26 72.2013V71.7847C129.26 71.7033 129.194 71.6373 129.113 71.6373Z" fill="#E6E6E6"/>
<path d="M131.478 71.6373H130.589C130.508 71.6373 130.442 71.7033 130.442 71.7847V72.2013C130.442 72.2827 130.508 72.3486 130.589 72.3486H131.478C131.559 72.3486 131.624 72.2827 131.624 72.2013V71.7847C131.624 71.7033 131.559 71.6373 131.478 71.6373Z" fill="#E6E6E6"/>
<path d="M133.842 71.6373H132.954C132.873 71.6373 132.807 71.7033 132.807 71.7847V72.2013C132.807 72.2827 132.873 72.3486 132.954 72.3486H133.842C133.923 72.3486 133.989 72.2827 133.989 72.2013V71.7847C133.989 71.7033 133.923 71.6373 133.842 71.6373Z" fill="#E6E6E6"/>
<path d="M136.207 71.6373H135.319C135.237 71.6373 135.172 71.7033 135.172 71.7847V72.2013C135.172 72.2827 135.237 72.3486 135.319 72.3486H136.207C136.288 72.3486 136.354 72.2827 136.354 72.2013V71.7847C136.354 71.7033 136.288 71.6373 136.207 71.6373Z" fill="#E6E6E6"/>
<path d="M138.572 71.6373H137.683C137.602 71.6373 137.536 71.7033 137.536 71.7847V72.2013C137.536 72.2827 137.602 72.3486 137.683 72.3486H138.572C138.653 72.3486 138.718 72.2827 138.718 72.2013V71.7847C138.718 71.7033 138.653 71.6373 138.572 71.6373Z" fill="#E6E6E6"/>
<path d="M140.936 71.6373H140.048C139.967 71.6373 139.901 71.7033 139.901 71.7847V72.2013C139.901 72.2827 139.967 72.3486 140.048 72.3486H140.936C141.017 72.3486 141.083 72.2827 141.083 72.2013V71.7847C141.083 71.7033 141.017 71.6373 140.936 71.6373Z" fill="#E6E6E6"/>
<path d="M143.301 71.6373H142.413C142.331 71.6373 142.266 71.7033 142.266 71.7847V72.2013C142.266 72.2827 142.331 72.3486 142.413 72.3486H143.301C143.382 72.3486 143.448 72.2827 143.448 72.2013V71.7847C143.448 71.7033 143.382 71.6373 143.301 71.6373Z" fill="#E6E6E6"/>
<path d="M145.666 71.6373H144.777C144.696 71.6373 144.63 71.7033 144.63 71.7847V72.2013C144.63 72.2827 144.696 72.3486 144.777 72.3486H145.666C145.747 72.3486 145.813 72.2827 145.813 72.2013V71.7847C145.813 71.7033 145.747 71.6373 145.666 71.6373Z" fill="#E6E6E6"/>
<path d="M148.03 71.6373H147.142C147.061 71.6373 146.995 71.7033 146.995 71.7847V72.2013C146.995 72.2827 147.061 72.3486 147.142 72.3486H148.03C148.111 72.3486 148.177 72.2827 148.177 72.2013V71.7847C148.177 71.7033 148.111 71.6373 148.03 71.6373Z" fill="#E6E6E6"/>
<path d="M150.395 71.6373H149.507C149.425 71.6373 149.36 71.7033 149.36 71.7847V72.2013C149.36 72.2827 149.425 72.3486 149.507 72.3486H150.395C150.476 72.3486 150.542 72.2827 150.542 72.2013V71.7847C150.542 71.7033 150.476 71.6373 150.395 71.6373Z" fill="#E6E6E6"/>
<path d="M152.76 71.6373H151.871C151.79 71.6373 151.724 71.7033 151.724 71.7847V72.2013C151.724 72.2827 151.79 72.3486 151.871 72.3486H152.76C152.841 72.3486 152.907 72.2827 152.907 72.2013V71.7847C152.907 71.7033 152.841 71.6373 152.76 71.6373Z" fill="#E6E6E6"/>
<path d="M155.124 71.6373H154.236C154.155 71.6373 154.089 71.7033 154.089 71.7847V72.2013C154.089 72.2827 154.155 72.3486 154.236 72.3486H155.124C155.205 72.3486 155.271 72.2827 155.271 72.2013V71.7847C155.271 71.7033 155.205 71.6373 155.124 71.6373Z" fill="#E6E6E6"/>
<path d="M157.489 71.6373H156.601C156.519 71.6373 156.454 71.7033 156.454 71.7847V72.2013C156.454 72.2827 156.519 72.3486 156.601 72.3486H157.489C157.57 72.3486 157.636 72.2827 157.636 72.2013V71.7847C157.636 71.7033 157.57 71.6373 157.489 71.6373Z" fill="#E6E6E6"/>
<path d="M141.646 73.0599H132.481C132.4 73.0599 132.334 73.1259 132.334 73.2073V73.6239C132.334 73.7053 132.4 73.7713 132.481 73.7713H141.646C141.727 73.7713 141.793 73.7053 141.793 73.6239V73.2073C141.793 73.1259 141.727 73.0599 141.646 73.0599Z" fill="#E6E6E6"/>
<path d="M161.479 20.6746V43.4655C161.479 44.9917 160.874 46.4554 159.798 47.5347C158.722 48.6139 157.262 49.2203 155.74 49.2205H127.292C126.172 49.2208 125.076 48.8926 124.14 48.2765C123.204 47.6605 122.467 46.7833 122.022 45.753C121.872 45.4125 121.759 45.0576 121.682 44.6937C122.286 44.9283 122.929 45.0481 123.578 45.0468H152.026C153.429 45.0449 154.773 44.4853 155.765 43.4907C156.757 42.4962 157.315 41.1479 157.317 39.7414V16.9506C157.318 16.3004 157.199 15.6557 156.965 15.0493C157.328 15.1264 157.682 15.2407 158.021 15.3903C159.049 15.8371 159.924 16.5753 160.538 17.5142C161.152 18.4531 161.48 19.5516 161.479 20.6746Z" fill="#F2F2F2"/>
<path d="M55.3481 111.351L52.5265 113.103L44.2139 102.857L48.3781 100.272L55.3481 111.351Z" fill="#FFB6B6"/>
<path d="M57.7841 115.01L55.5143 116.026L54.1526 114.059L54.0716 116.672L48.0517 119.367C47.7631 119.496 47.4409 119.529 47.1322 119.462C46.8234 119.394 46.5442 119.23 46.3354 118.992C46.1265 118.754 45.999 118.456 45.9713 118.14C45.9436 117.824 46.0173 117.508 46.1815 117.237L49.5067 111.757L48.5396 109.584L53.7308 107.624L57.7841 115.01Z" fill="#2F2E41"/>
<path d="M47.444 109.38L52.2096 104.749C48.669 95.9886 48.3861 90.5585 43.4777 79.9632C55.1233 82.3516 63.4492 82.2064 73.0804 80.0651C76.3409 79.3515 84.7538 72.8355 84.0621 69.4944C84.0298 69.3383 83.9916 69.1836 83.9475 69.0303C82.9137 65.496 83.6417 60.0836 81.4041 56.1616C77.2642 54.5966 70.9745 59.8813 66.0544 63.1027C63.6819 64.656 65.4186 66.7728 63.6466 67.3277L56.8539 69.5386L40.1882 66.8398C39.3828 66.7174 38.5612 66.756 37.7707 66.9535C36.9802 67.1509 36.2366 67.5033 35.5826 67.9903C34.9285 68.4773 34.3771 69.0892 33.9601 69.7909C33.543 70.4926 33.2686 71.27 33.1526 72.0785C33.1244 72.26 33.104 72.4424 33.0913 72.6258C33.8581 76.882 34.6575 81.0265 35.5181 84.9608C35.7959 86.2307 35.3269 88.6653 36.3715 88.7016C37.4162 88.7378 36.9954 91.2559 37.3207 92.4869C39.3236 100.066 40.5902 103.734 47.444 109.38Z" fill="#2F2E41"/>
<path d="M38.3227 129.691L35.3831 128.152L40.034 115.799L44.3725 118.069L38.3227 129.691Z" fill="#FFB6B6"/>
<path d="M37.8328 120.468L42.5464 123.722C48.3234 115.345 52.0745 104.15 54.868 91.6241C65.7447 86.8666 75.2622 81.4235 81.8944 74.1226C82.9835 72.8986 83.5547 71.2975 83.4867 69.6585C83.4188 68.0194 82.7171 66.4714 81.5304 65.3422C81.4143 65.2331 81.2943 65.1286 81.1704 65.0287C78.2977 62.7342 71.9176 64.0544 67.8398 62.1367L60.555 72.2464L61.3923 74.6011L58.8581 75.8381L56.7185 76.8826L54.2691 78.0782L46.2397 81.9976C45.5117 82.3624 44.863 82.8682 44.331 83.4856C43.7989 84.1031 43.3941 84.8201 43.1398 85.5953C42.8854 86.3704 42.7867 87.1884 42.8492 88.002C42.9118 88.8156 43.1343 89.6088 43.5041 90.3357C43.5852 90.5003 43.6733 90.6612 43.7682 90.8185L40.7862 105.715C40.7862 105.715 41.6067 108.308 40.3156 108.065C39.0245 107.823 39.7281 111 39.7281 111L37.8328 120.468Z" fill="#2F2E41"/>
<path d="M36.5426 136.499L34.339 135.346L35.0315 133.054L32.9383 134.613L27.0939 131.555C26.8138 131.408 26.5877 131.176 26.4487 130.891C26.3097 130.606 26.265 130.285 26.3212 129.973C26.3775 129.661 26.5316 129.376 26.7612 129.158C26.9908 128.94 27.2837 128.802 27.5973 128.763L33.9468 127.973L35.0445 125.864L39.8006 128.727L36.5426 136.499Z" fill="#2F2E41"/>
<path d="M100.794 71.7356L97.3557 63.4045L94.647 64.9135L96.2828 73.3882C96.119 73.9252 96.1078 74.4972 96.2504 75.0402C96.3931 75.5831 96.6839 76.0754 97.0903 76.4617C97.4967 76.848 98.0025 77.113 98.5508 77.2268C99.0992 77.3407 99.6683 77.2989 100.194 77.1062C100.72 76.9135 101.182 76.5775 101.528 76.136C101.874 75.6945 102.09 75.165 102.153 74.6071C102.215 74.0491 102.121 73.4847 101.881 72.9774C101.641 72.4702 101.264 72.0401 100.794 71.7356Z" fill="#FFB6B6"/>
<path d="M43.1019 5.85672L48.3331 13.19L50.6304 11.1049L47.1221 3.22217C47.1603 2.662 47.042 2.10225 46.7803 1.60583C46.5187 1.10941 46.1242 0.696 45.6411 0.412089C45.1579 0.128178 44.6054 -0.0149836 44.0456 -0.00130067C43.4858 0.0123822 42.9409 0.182367 42.4722 0.489543C42.0035 0.79672 41.6295 1.22891 41.3923 1.73752C41.1551 2.24614 41.0641 2.81101 41.1295 3.36864C41.1949 3.92627 41.4142 4.45456 41.7626 4.89409C42.1111 5.33363 42.5749 5.667 43.1019 5.85672H43.1019Z" fill="#FFB6B6"/>
<path d="M66.7249 52.336C63.3319 57.6131 75.7626 69.111 82.3069 66.4224C83.4528 65.9516 87.3946 64.3966 84.7003 62.2407C82.0059 60.0849 85.0127 62.4975 85.0837 61.0941C85.1312 60.1559 84.4068 58.0976 85.1627 58.1859C85.9186 58.2741 86.3524 56.082 84.7062 55.5237C84.1337 55.3187 83.6315 54.9543 83.2583 54.4732C82.8852 53.9922 82.6565 53.4144 82.5993 52.8076C82.4419 47.0234 84.3955 40.9844 84.3955 40.9844L92.3707 61.4259C92.3707 61.4259 92.3118 64.9624 93.3288 63.8816C94.3458 62.8009 94.2718 66.2987 94.2718 66.2987C94.2718 66.2987 95.7841 67.357 94.9145 67.9459C94.0448 68.5349 95.8507 70.3456 95.8507 70.3456L100.064 70.0438C100.064 70.0438 99.9983 66.9052 99.2789 66.2111C98.5594 65.517 98.9129 64.4248 98.9129 64.4248C98.9129 64.4248 97.4296 63.0414 98.2955 61.4122C99.1614 59.7831 91.9898 30.6417 91.9898 30.6417C91.7025 29.2397 91.0341 27.9446 90.0586 26.8996C89.0831 25.8547 87.8384 25.1005 86.4621 24.7205L81.9111 23.4641L81.103 20.2491H74.6948L73.5786 22.3616L63.3455 21.4563C63.3455 21.4563 53.22 12.2186 53.7143 11.4973C54.2087 10.776 52.6391 9.08735 52.6391 9.08735C52.6391 9.08735 51.2986 8.64743 52.055 8.41255C52.8114 8.17768 51.3817 7.63465 51.3817 7.63465C51.3817 7.63465 50.0575 7.28575 50.682 6.82636C51.3066 6.36697 48.5978 6.06519 48.5978 6.06519L45.0833 8.94047L45.7936 10.1482C45.7936 10.1482 45.3605 11.7927 45.9257 11.1924C46.4909 10.592 46.5974 12.3343 46.5974 12.3343C46.5974 12.3343 46.886 14.2422 48.5978 14.817C50.3095 15.3918 51.6075 20.8527 51.6075 20.8527L66.0543 32.9241C63.854 35.4565 64.3777 38.1046 66.3268 40.8133L66.7249 52.336Z" fill="#25BE9F"/>
<path d="M77.7543 18.113C81.5867 18.113 84.6935 14.9979 84.6935 11.1551C84.6935 7.31242 81.5867 4.19727 77.7543 4.19727C73.922 4.19727 70.8152 7.31242 70.8152 11.1551C70.8152 14.9979 73.922 18.113 77.7543 18.113Z" fill="#FFB6B6"/>
<path d="M83.8118 9.08306C83.6343 9.13436 81.0278 9.47538 79.8992 9.68663C78.7916 9.89486 78.599 8.47949 77.693 8.74506C77.6935 8.73887 77.6925 8.73266 77.69 8.72696C77.5496 7.97701 77.3097 7.24928 76.9767 6.56315C77.0975 7.22031 77.1148 7.89241 77.0279 8.55494C77.0274 8.57218 77.0254 8.58935 77.0219 8.60624C77.0189 8.63642 77.0129 8.66358 77.0098 8.69375C76.0527 8.27125 75.4448 8.64849 74.7826 8.78127C74.0422 8.92915 73.4644 9.25508 73.8797 11.7991C74.7315 17.0321 79.1618 18.9002 78.3943 22.3616C78.2438 23.0467 77.8646 23.9038 77.3891 24.118C77.2486 23.3681 77.0087 22.6404 76.6758 21.9542C76.7966 22.6114 76.8138 23.2835 76.7269 23.946C75.9896 23.1463 75.4568 20.3517 72.9768 18.1366C72.3658 17.5934 69.3049 14.3703 68.9377 13.6098C69.0504 14.2179 69.1048 14.8353 69.1003 15.4538C69.101 15.8677 69.0728 16.2811 69.016 16.6911C69.016 16.7175 69.0129 16.7438 69.007 16.7695C69.004 16.8178 68.9949 16.8601 68.9889 16.9054C68.9829 16.9567 68.9739 17.0049 68.9648 17.0562C67.9626 16.9114 67.0747 16.7363 66.6564 16.3259C64.6218 14.3402 67.1048 10.4713 68.4622 6.97056C70.4035 1.9579 76.0407 1.29095 76.5885 1.23663C79.0023 0.992183 83.0805 1.51125 84.4138 4.25449C85.3468 6.17686 84.7509 8.81145 83.8118 9.08306Z" fill="#2F2E41"/>
<path d="M69.1798 10.2145L74.2064 2.37405C73.0017 1.67282 71.63 1.31201 70.2372 1.32999C69.543 1.34445 68.8597 1.50542 68.2317 1.80241C67.6038 2.09939 67.0453 2.52572 66.5926 3.05362C65.566 4.33295 65.3899 6.14143 65.7745 7.73754C65.9073 8.28878 68.4369 6.34921 67.835 7.25457C67.3408 7.96341 66.5328 10.9428 66.3301 11.7814C66.0039 13.1309 65.1071 14.5162 65.906 15.6504C66.8507 16.9917 68.5365 17.6584 70.1728 17.7261C71.809 17.7938 73.4195 17.3391 74.9745 16.8241L69.1798 10.2145Z" fill="#2F2E41"/>
<path d="M71.1114 9.90525C71.0389 9.90516 70.9687 9.87878 70.914 9.83096C70.8593 9.78314 70.8237 9.7171 70.8137 9.64502C70.8037 9.57293 70.82 9.49965 70.8596 9.43867C70.8992 9.37769 70.9595 9.33312 71.0293 9.31317C71.1082 9.18261 71.0759 8.63312 71.0499 8.18914C70.952 6.52209 70.7881 3.73206 73.4896 1.84869C73.5551 1.803 73.636 1.78528 73.7146 1.79943C73.7931 1.81358 73.8628 1.85844 73.9084 1.92413C73.954 1.98983 73.9716 2.07098 73.9575 2.14974C73.9434 2.2285 73.8987 2.29841 73.8331 2.3441C71.4089 4.03443 71.5544 6.5134 71.6508 8.15362C71.7058 9.0914 71.7456 9.76878 71.1783 9.89773C71.1564 9.90275 71.1339 9.90528 71.1114 9.90525Z" fill="#25BE9F"/>
<path d="M1.57842e-06 136.392C-0.00027982 136.487 0.0370746 136.578 0.103843 136.646C0.170611 136.713 0.261324 136.751 0.35603 136.751H215.642C215.737 136.751 215.828 136.714 215.895 136.646C215.962 136.579 216 136.488 216 136.392C216 136.297 215.962 136.206 215.895 136.138C215.828 136.071 215.737 136.033 215.642 136.033H0.358171C0.311275 136.033 0.264813 136.042 0.221433 136.06C0.178054 136.078 0.138607 136.104 0.105349 136.137C0.0720906 136.17 0.0456717 136.21 0.0275979 136.253C0.00952407 136.297 0.0001485 136.343 1.07634e-05 136.39L1.57842e-06 136.392Z" fill="#CCCCCC"/>
<path d="M133.191 28.6243H128.637C128.516 28.6243 128.4 28.5761 128.315 28.4905C128.23 28.4049 128.182 28.2887 128.182 28.1676C128.182 28.0465 128.23 27.9303 128.315 27.8447C128.4 27.759 128.516 27.7109 128.637 27.7109H133.191C133.312 27.7109 133.428 27.759 133.513 27.8447C133.599 27.9303 133.647 28.0465 133.647 28.1676C133.647 28.2887 133.599 28.4049 133.513 28.4905C133.428 28.5761 133.312 28.6243 133.191 28.6243Z" fill="#25BE9F"/>
<path d="M141.389 28.6243H136.835C136.775 28.6243 136.716 28.6125 136.661 28.5895C136.605 28.5666 136.555 28.5329 136.513 28.4905C136.47 28.4481 136.437 28.3978 136.414 28.3424C136.391 28.287 136.379 28.2276 136.379 28.1676C136.379 28.1076 136.391 28.0482 136.414 27.9928C136.437 27.9374 136.47 27.8871 136.513 27.8447C136.555 27.8023 136.605 27.7686 136.661 27.7457C136.716 27.7227 136.775 27.7109 136.835 27.7109H141.389C141.449 27.7109 141.508 27.7227 141.563 27.7457C141.619 27.7686 141.669 27.8023 141.711 27.8447C141.754 27.8871 141.787 27.9374 141.81 27.9928C141.833 28.0482 141.845 28.1076 141.845 28.1676C141.845 28.2276 141.833 28.287 141.81 28.3424C141.787 28.3978 141.754 28.4481 141.711 28.4905C141.669 28.5329 141.619 28.5666 141.563 28.5895C141.508 28.6125 141.449 28.6243 141.389 28.6243Z" fill="#25BE9F"/>
<path d="M145.488 32.2776H140.934C140.874 32.2776 140.815 32.2658 140.76 32.2428C140.704 32.2199 140.654 32.1862 140.612 32.1438C140.57 32.1014 140.536 32.0511 140.513 31.9957C140.49 31.9403 140.479 31.8809 140.479 31.8209C140.479 31.761 140.49 31.7016 140.513 31.6462C140.536 31.5908 140.57 31.5404 140.612 31.498C140.654 31.4556 140.704 31.422 140.76 31.399C140.815 31.3761 140.874 31.3643 140.934 31.3643H145.488C145.548 31.3643 145.607 31.3761 145.663 31.399C145.718 31.422 145.768 31.4556 145.81 31.498C145.853 31.5404 145.886 31.5908 145.909 31.6462C145.932 31.7016 145.944 31.761 145.944 31.8209C145.944 31.8809 145.932 31.9403 145.909 31.9957C145.886 32.0511 145.853 32.1014 145.81 32.1438C145.768 32.1862 145.718 32.2199 145.663 32.2428C145.607 32.2658 145.548 32.2776 145.488 32.2776Z" fill="#25BE9F"/>
<path d="M137.315 32.2776H128.637C128.516 32.2776 128.4 32.2295 128.315 32.1438C128.23 32.0582 128.182 31.942 128.182 31.8209C128.182 31.6998 128.23 31.5837 128.315 31.498C128.4 31.4124 128.516 31.3643 128.637 31.3643H137.315C137.436 31.3643 137.552 31.4124 137.638 31.498C137.723 31.5837 137.771 31.6998 137.771 31.8209C137.771 31.942 137.723 32.0582 137.638 32.1438C137.552 32.2295 137.436 32.2776 137.315 32.2776Z" fill="#25BE9F"/>
<path d="M153.711 28.6243H145.033C144.912 28.6243 144.796 28.5761 144.711 28.4905C144.625 28.4049 144.577 28.2887 144.577 28.1676C144.577 28.0465 144.625 27.9303 144.711 27.8447C144.796 27.759 144.912 27.7109 145.033 27.7109H153.711C153.771 27.7109 153.83 27.7227 153.886 27.7457C153.941 27.7686 153.991 27.8023 154.033 27.8447C154.076 27.8871 154.109 27.9374 154.132 27.9928C154.155 28.0482 154.167 28.1076 154.167 28.1676C154.167 28.2276 154.155 28.287 154.132 28.3424C154.109 28.3978 154.076 28.4481 154.033 28.4905C153.991 28.5329 153.941 28.5666 153.886 28.5895C153.83 28.6125 153.771 28.6243 153.711 28.6243Z" fill="#25BE9F"/>
<path d="M136.31 21.7061H127.631C127.571 21.7062 127.512 21.6945 127.457 21.6716C127.401 21.6488 127.351 21.6151 127.308 21.5727C127.266 21.5303 127.232 21.4799 127.209 21.4244C127.186 21.3689 127.175 21.3095 127.175 21.2494C127.175 21.1893 127.186 21.1298 127.209 21.0744C127.232 21.0189 127.266 20.9685 127.308 20.9261C127.351 20.8836 127.401 20.85 127.457 20.8272C127.512 20.8043 127.571 20.7926 127.631 20.7927H136.31C136.43 20.7927 136.546 20.8408 136.632 20.9265C136.717 21.0121 136.765 21.1283 136.765 21.2494C136.765 21.3705 136.717 21.4867 136.632 21.5723C136.546 21.6579 136.43 21.7061 136.31 21.7061Z" fill="#25BE9F"/>
<path d="M137.023 24.3742C136.938 24.3742 136.855 24.3476 136.786 24.2981C136.717 24.2486 136.665 24.1786 136.637 24.098C136.609 24.0173 136.608 23.9301 136.632 23.8484C136.656 23.7667 136.705 23.6946 136.773 23.6423L138.995 21.9104C139.084 21.8408 139.158 21.7533 139.212 21.6536C139.266 21.5539 139.298 21.444 139.307 21.331C139.317 21.218 139.302 21.1043 139.266 20.997C139.229 20.8898 139.17 20.7914 139.093 20.7081L137.228 18.683C137.191 18.6435 137.163 18.5973 137.145 18.5469C137.126 18.4965 137.118 18.443 137.12 18.3893C137.122 18.3357 137.135 18.2829 137.157 18.2342C137.179 18.1854 137.211 18.1415 137.25 18.1051C137.29 18.0686 137.336 18.0403 137.386 18.0217C137.436 18.0031 137.49 17.9947 137.543 17.9968C137.597 17.9989 137.649 18.0116 137.698 18.034C137.747 18.0565 137.79 18.0884 137.827 18.1279L140.597 21.1351C140.636 21.1767 140.665 21.2258 140.683 21.2794C140.702 21.3329 140.709 21.3897 140.704 21.4461C140.7 21.5026 140.683 21.5575 140.657 21.6073C140.63 21.6571 140.593 21.7008 140.548 21.7355L137.273 24.2881C137.202 24.3439 137.114 24.3742 137.023 24.3742Z" fill="#25BE9F"/>
<path d="M127.192 24.3742C127.277 24.3742 127.36 24.3476 127.429 24.2981C127.498 24.2486 127.55 24.1786 127.578 24.098C127.605 24.0173 127.607 23.9301 127.583 23.8484C127.559 23.7667 127.51 23.6946 127.442 23.6423L125.22 21.9104C125.131 21.8408 125.057 21.7533 125.003 21.6536C124.949 21.5539 124.917 21.444 124.908 21.331C124.898 21.218 124.912 21.1043 124.949 20.997C124.986 20.8898 125.045 20.7914 125.122 20.7081L126.987 18.683C127.024 18.6435 127.052 18.5973 127.07 18.5469C127.089 18.4965 127.097 18.443 127.095 18.3893C127.093 18.3357 127.08 18.2829 127.058 18.2342C127.036 18.1854 127.004 18.1415 126.964 18.1051C126.925 18.0686 126.879 18.0403 126.829 18.0217C126.779 18.0031 126.725 17.9947 126.672 17.9968C126.618 17.9989 126.565 18.0116 126.517 18.034C126.468 18.0565 126.424 18.0884 126.388 18.1279L123.618 21.1351C123.579 21.1767 123.55 21.2258 123.532 21.2794C123.513 21.3329 123.506 21.3897 123.511 21.4461C123.515 21.5026 123.532 21.5575 123.558 21.6073C123.585 21.6571 123.622 21.7008 123.667 21.7355L126.942 24.2881C127.013 24.3439 127.101 24.3742 127.192 24.3742Z" fill="#25BE9F"/>
<path d="M140.796 40.109H132.118C131.997 40.109 131.881 40.0609 131.796 39.9753C131.71 39.8896 131.662 39.7735 131.662 39.6523C131.662 39.5312 131.71 39.4151 131.796 39.3294C131.881 39.2438 131.997 39.1957 132.118 39.1957H140.796C140.917 39.1957 141.033 39.2438 141.118 39.3294C141.203 39.4151 141.251 39.5312 141.251 39.6523C141.251 39.7735 141.203 39.8896 141.118 39.9753C141.033 40.0609 140.917 40.109 140.796 40.109Z" fill="#25BE9F"/>
<path d="M142.325 42.368C142.24 42.3681 142.157 42.3415 142.088 42.292C142.019 42.2425 141.967 42.1725 141.939 42.0919C141.911 42.0112 141.91 41.924 141.934 41.8423C141.958 41.7606 142.007 41.6885 142.075 41.6362L144.297 39.9042C144.386 39.8347 144.46 39.7472 144.514 39.6475C144.568 39.5478 144.6 39.4379 144.609 39.3249C144.619 39.2119 144.604 39.0981 144.568 38.9909C144.531 38.8837 144.472 38.7853 144.395 38.702L142.53 36.6769C142.493 36.6374 142.465 36.5912 142.447 36.5408C142.428 36.4904 142.42 36.4369 142.422 36.3832C142.424 36.3295 142.437 36.2768 142.459 36.2281C142.481 36.1793 142.513 36.1354 142.552 36.099C142.592 36.0625 142.638 36.0342 142.688 36.0156C142.738 35.997 142.792 35.9886 142.845 35.9907C142.899 35.9928 142.951 36.0054 143 36.0279C143.049 36.0504 143.092 36.0823 143.129 36.1217L145.899 39.129C145.938 39.1706 145.967 39.2197 145.985 39.2733C146.004 39.3268 146.011 39.3836 146.006 39.44C146.002 39.4965 145.985 39.5514 145.959 39.6012C145.932 39.651 145.895 39.6947 145.85 39.7294L142.575 42.282C142.504 42.3378 142.416 42.3681 142.325 42.368Z" fill="#25BE9F"/>
<path d="M127.192 42.368C127.277 42.3681 127.36 42.3415 127.429 42.292C127.498 42.2425 127.55 42.1725 127.578 42.0919C127.605 42.0112 127.607 41.924 127.583 41.8423C127.559 41.7606 127.51 41.6885 127.442 41.6362L125.22 39.9042C125.131 39.8347 125.057 39.7472 125.003 39.6475C124.949 39.5478 124.917 39.4379 124.908 39.3249C124.898 39.2119 124.912 39.0981 124.949 38.9909C124.986 38.8837 125.045 38.7853 125.122 38.702L126.987 36.6769C127.061 36.5972 127.099 36.4916 127.095 36.3832C127.091 36.2748 127.044 36.1726 126.964 36.099C126.885 36.0254 126.78 35.9864 126.672 35.9907C126.564 35.9949 126.462 36.0421 126.388 36.1217L123.618 39.129C123.579 39.1706 123.55 39.2197 123.532 39.2733C123.513 39.3268 123.506 39.3836 123.511 39.44C123.515 39.4965 123.532 39.5514 123.558 39.6012C123.585 39.651 123.622 39.6947 123.667 39.7294L126.942 42.282C127.013 42.3378 127.101 42.3681 127.192 42.368Z" fill="#25BE9F"/>
<path d="M127.967 41.0885L129.791 36.9042C129.839 36.7938 129.93 36.7072 130.042 36.6634C130.154 36.6196 130.279 36.6222 130.39 36.6706C130.5 36.7189 130.587 36.8092 130.631 36.9215C130.675 37.0338 130.673 37.1592 130.625 37.27L128.801 41.4543C128.777 41.5096 128.743 41.5595 128.7 41.6014C128.657 41.6433 128.606 41.6762 128.55 41.6982C128.494 41.7203 128.435 41.7311 128.375 41.73C128.315 41.7289 128.255 41.7159 128.2 41.6918C128.146 41.6678 128.096 41.633 128.054 41.5896C128.013 41.5462 127.98 41.495 127.958 41.4389C127.937 41.3829 127.926 41.323 127.928 41.2629C127.929 41.2028 127.942 41.1435 127.967 41.0885Z" fill="#25BE9F"/>
</g>
<defs>
<clipPath id="clip0_413_246">
<rect width="216" height="137" fill="white"/>
</clipPath>
</defs>
</svg>
